<svg xmlns="http://www.w3.org/2000/svg" fill="none" viewBox="0 0 200 200"><path fill="#fff" d="M96.128 90.477H79.082c-.227-1.75-.693-3.33-1.397-4.738a11.523 11.523 0 0 0-2.796-3.614c-1.159-1-2.534-1.761-4.125-2.284-1.568-.545-3.307-.818-5.216-.818-3.386 0-6.306.83-8.761 2.488-2.432 1.66-4.307 4.057-5.625 7.194-1.295 3.136-1.943 6.931-1.943 11.386 0 4.636.659 8.523 1.977 11.659 1.34 3.114 3.216 5.466 5.625 7.057 2.432 1.568 5.307 2.352 8.625 2.352 1.864 0 3.557-.239 5.08-.716 1.545-.477 2.897-1.17 4.056-2.079a11.499 11.499 0 0 0 2.898-3.375c.773-1.341 1.307-2.853 1.602-4.534l17.046.102c-.296 3.091-1.193 6.136-2.693 9.136-1.478 3-3.512 5.739-6.103 8.216-2.59 2.455-5.75 4.409-9.477 5.864-3.704 1.454-7.954 2.182-12.75 2.182-6.318 0-11.977-1.387-16.977-4.16-4.977-2.795-8.91-6.863-11.796-12.204-2.886-5.341-4.33-11.841-4.33-19.5 0-7.682 1.467-14.193 4.399-19.534 2.931-5.341 6.897-9.398 11.897-12.17 5-2.773 10.603-4.16 16.807-4.16 4.227 0 8.136.591 11.727 1.773 3.591 1.16 6.75 2.864 9.478 5.114 2.727 2.227 4.943 4.965 6.647 8.215 1.705 3.25 2.762 6.967 3.17 11.148Zm73.031 0h-17.045c-.228-1.75-.694-3.33-1.398-4.738a11.517 11.517 0 0 0-2.796-3.614c-1.159-1-2.534-1.761-4.125-2.284-1.568-.545-3.306-.818-5.215-.818-3.387 0-6.307.83-8.762 2.488-2.432 1.66-4.307 4.057-5.625 7.194-1.295 3.136-1.943 6.931-1.943 11.386 0 4.636.659 8.523 1.977 11.659 1.341 3.114 3.216 5.466 5.625 7.057 2.432 1.568 5.307 2.352 8.625 2.352 1.864 0 3.557-.239 5.08-.716 1.545-.477 2.898-1.17 4.057-2.079a11.508 11.508 0 0 0 2.897-3.375c.773-1.341 1.307-2.853 1.603-4.534l17.045.102c-.295 3.091-1.193 6.136-2.693 9.136-1.477 3-3.511 5.739-6.102 8.216-2.591 2.455-5.75 4.409-9.478 5.864-3.704 1.454-7.954 2.182-12.75 2.182-6.318 0-11.977-1.387-16.977-4.16-4.977-2.795-8.909-6.863-11.795-12.204-2.887-5.341-4.33-11.841-4.33-19.5 0-7.682 1.466-14.193 4.398-19.534 2.932-5.341 6.898-9.398 11.898-12.17 5-2.773 10.602-4.16 16.806-4.16 4.228 0 8.137.591 11.728 1.773 3.591 1.16 6.75 2.864 9.477 5.114 2.727 2.227 4.943 4.965 6.648 8.215 1.704 3.25 2.761 6.967 3.17 11.148Z"/><path fill="#fff" fill-rule="evenodd" d="M160 16H40c-13.255 0-24 10.745-24 24v120c0 13.255 10.745 24 24 24h120c13.255 0 24-10.745 24-24V40c0-13.255-10.745-24-24-24ZM40 0C17.909 0 0 17.909 0 40v120c0 22.091 17.909 40 40 40h120c22.091 0 40-17.909 40-40V40c0-22.091-17.909-40-40-40H40Z" clip-rule="evenodd"/></svg>
