<svg xmlns="http://www.w3.org/2000/svg" fill="none" viewBox="0 0 364 370"><path fill="#E04547" d="M239 0H125C55.964 0 0 55.964 0 125v120c0 69.036 55.964 125 125 125h114c69.036 0 125-55.964 125-125V125C364 55.964 308.036 0 239 0Z"/><path fill="#fff" d="M175.239 168.318h-17c-.485-2.788-1.379-5.257-2.682-7.409-1.303-2.182-2.924-4.03-4.864-5.545-1.939-1.516-4.151-2.652-6.636-3.409-2.455-.788-5.106-1.182-7.955-1.182-5.06 0-9.545 1.272-13.454 3.818-3.909 2.515-6.97 6.212-9.182 11.091-2.212 4.848-3.318 10.773-3.318 17.773 0 7.121 1.106 13.121 3.318 18 2.242 4.848 5.303 8.515 9.182 11 3.909 2.454 8.379 3.681 13.409 3.681 2.788 0 5.394-.363 7.818-1.091 2.455-.757 4.652-1.863 6.591-3.318a19.474 19.474 0 0 0 4.954-5.363c1.364-2.122 2.303-4.546 2.819-7.273l17 .091a36.618 36.618 0 0 1-4.137 12.454c-2.091 3.879-4.833 7.303-8.227 10.273-3.394 2.939-7.364 5.243-11.909 6.909-4.546 1.637-9.591 2.455-15.136 2.455-8.182 0-15.485-1.894-21.91-5.682-6.424-3.788-11.484-9.258-15.181-16.409-3.697-7.152-5.546-15.727-5.546-25.727 0-10.031 1.864-18.607 5.591-25.728 3.727-7.151 8.803-12.621 15.227-16.409 6.425-3.788 13.697-5.682 21.819-5.682 5.181 0 10 .728 14.454 2.182 4.455 1.455 8.424 3.591 11.909 6.409 3.485 2.788 6.349 6.212 8.591 10.273 2.273 4.03 3.758 8.636 4.455 13.818Zm95.125 0h-17c-.485-2.788-1.379-5.257-2.682-7.409-1.303-2.182-2.924-4.03-4.864-5.545-1.939-1.516-4.151-2.652-6.636-3.409-2.455-.788-5.106-1.182-7.955-1.182-5.06 0-9.545 1.272-13.454 3.818-3.909 2.515-6.97 6.212-9.182 11.091-2.212 4.848-3.318 10.773-3.318 17.773 0 7.121 1.106 13.121 3.318 18 2.242 4.848 5.303 8.515 9.182 11 3.909 2.454 8.379 3.681 13.409 3.681 2.788 0 5.394-.363 7.818-1.091 2.455-.757 4.652-1.863 6.591-3.318a19.474 19.474 0 0 0 4.954-5.363c1.364-2.122 2.303-4.546 2.819-7.273l17 .091a36.618 36.618 0 0 1-4.137 12.454c-2.091 3.879-4.833 7.303-8.227 10.273-3.394 2.939-7.364 5.243-11.909 6.909-4.546 1.637-9.591 2.455-15.136 2.455-8.182 0-15.485-1.894-21.91-5.682-6.424-3.788-11.484-9.258-15.181-16.409-3.697-7.152-5.546-15.727-5.546-25.727 0-10.031 1.864-18.607 5.591-25.728 3.727-7.151 8.803-12.621 15.227-16.409 6.425-3.788 13.697-5.682 21.819-5.682 5.181 0 10 .728 14.454 2.182 4.455 1.455 8.424 3.591 11.909 6.409 3.485 2.788 6.349 6.212 8.591 10.273 2.273 4.03 3.758 8.636 4.455 13.818Z"/><rect width="225" height="205" x="69" y="81" stroke="#fff" stroke-width="8" rx="36"/></svg>
